<svg width="124" height="107" viewBox="0 0 124 107" fill="none" xmlns="http://www.w3.org/2000/svg">
<g clip-path="url(#clip0_2201_799)">
<path d="M52.9961 54.3181C52.9961 54.3181 46.3887 49.459 46.2148 49.459C46.2148 49.8061 47.6059 53.4504 47.6059 53.4504C47.6059 53.971 47.9536 54.1446 47.9536 54.3181C47.9536 54.3181 48.3014 54.3181 48.823 54.3181H53.17H52.9961Z" fill="#231815"/>
<path d="M44.1278 56.4008C43.9539 55.5331 40.8241 46.3354 40.8241 45.9884C40.8241 45.6413 40.8241 45.2942 41.1718 45.1207C41.1718 45.1207 41.1718 45.1207 42.9106 44.6L43.9539 44.253C45.171 43.9059 45.8666 44.253 46.5621 44.7736L48.4747 46.1619C52.1262 48.765 59.7768 54.3183 60.1246 54.4918C60.1246 54.4918 60.2985 54.4918 60.4723 54.4918C60.4723 54.4918 60.4723 54.4918 60.4723 54.3183C60.4723 53.6241 60.4723 40.088 60.4723 36.6172C58.2119 37.3113 51.9523 39.3938 50.3874 39.9145C50.3874 39.9145 50.5613 40.088 50.7352 40.2615C51.4307 40.7822 52.1262 41.3028 52.3001 41.4763C52.3001 41.4763 57.3425 39.7409 57.5164 39.7409H58.2119C58.2119 39.5674 58.2119 50.8475 58.2119 50.8475L57.3425 50.1533C57.3425 50.1533 47.4315 42.8646 46.5621 42.344C46.0404 41.9969 45.5188 41.8234 44.9972 41.8234C44.4755 41.8234 44.4755 41.8234 44.1278 41.8234C42.5629 42.344 38.9114 43.5588 38.2159 43.7323C37.8682 43.7323 37.8682 44.0794 37.8682 44.4265C37.8682 44.4265 38.3898 45.9884 39.0853 47.8973C40.3025 51.7152 42.0412 56.9214 42.2151 57.6156C42.9106 59.6981 43.9539 60.3922 46.0404 60.3922C46.5621 60.3922 58.7335 60.3922 60.4723 60.3922V58.3097H47.0837C44.9972 58.3097 44.4755 57.6156 44.1278 56.2272V56.4008Z" fill="#231815"/>
<path d="M58.212 12.1477C58.212 12.1477 66.3842 12.1477 66.5581 12.1477C66.3842 12.1477 64.2977 10.4123 63.0805 9.71817C62.5589 9.37109 62.385 9.37109 62.2112 9.37109C62.0373 9.37109 61.8634 9.37109 61.5157 9.71817L58.0381 12.3213L58.212 12.1477Z" fill="#231815"/>
<path d="M66.2101 22.3863C66.2101 22.3863 63.0803 26.5512 63.0803 26.7248L62.5587 27.4189L55.9513 18.2213H57.1685C57.1685 18.2213 69.5138 18.2213 70.3832 18.2213C71.2526 18.2213 71.9481 18.0478 72.6436 17.1801C73.513 15.9653 75.9473 12.668 76.2951 12.1474C76.469 11.9738 76.2951 11.6268 76.2951 11.4532C75.7734 11.1061 65.8624 3.99099 64.993 3.29683C63.2542 2.08205 62.0371 2.08205 60.2983 3.29683C59.7766 3.64391 50.0395 10.7591 48.6484 11.8003L49.8656 13.5357L60.646 5.72639C62.2109 4.51161 63.0803 4.68515 64.2975 5.72639C64.993 6.24701 72.9914 11.9738 73.1653 12.1474C73.513 12.3209 73.513 12.668 73.3391 13.0151C73.3391 13.0151 72.9914 13.3622 71.6004 15.2711C70.9048 16.4859 69.8616 16.4859 69.1661 16.4859C68.1228 16.4859 52.9954 16.4859 52.4738 16.4859H52.2999C52.2999 16.4859 52.2999 16.4859 52.2999 16.833C52.6476 17.3536 60.646 28.2866 62.7326 31.2368C64.1236 29.3279 67.9489 24.1217 68.9922 22.7333C67.4273 22.7333 66.7318 22.7333 66.5579 22.7333L66.2101 22.3863Z" fill="#231815"/>
<path d="M42.9104 23.2539C42.7365 23.2539 39.4328 25.6835 39.4328 25.6835C38.9112 26.0306 38.9112 26.2041 38.7373 26.3776C38.7373 26.3776 38.7373 26.7247 38.7373 27.2453L40.1283 31.4103C40.1283 31.4103 42.5626 23.7745 42.7365 23.4274L42.9104 23.2539Z" fill="#231815"/>
<path d="M34.565 27.0731C33.8694 25.1642 34.3911 24.47 35.6082 23.6023C36.1299 23.2553 40.4768 20.1315 42.9111 18.3961C44.1283 17.5284 44.476 17.3549 44.476 17.1813C44.476 17.1813 44.8238 17.1813 44.9977 17.1813C45.1715 17.1813 45.3454 17.1813 45.5193 17.3549C45.5193 17.3549 45.5193 17.5284 46.5626 18.7432L47.2581 19.7844C47.9536 20.8257 47.7797 21.6934 47.4319 22.3876C47.0842 23.4288 42.3895 37.8326 42.2156 38.3533V38.5268C42.2156 38.5268 42.2156 38.5268 42.5634 38.5268C43.2589 38.3533 56.1259 34.1883 59.4295 32.9735C57.343 30.0233 54.0393 25.6848 53.1699 24.47C52.996 25.1642 52.4744 26.7261 52.4744 26.8996L55.6042 31.2381L56.1259 31.9323L45.3454 35.4031L45.6932 34.3618C45.6932 34.3618 49.5185 22.7346 49.8662 21.8669C50.214 20.9992 50.214 20.3051 49.5185 19.2638C48.6491 18.049 46.2148 14.7518 45.867 14.2312C45.867 14.2312 45.6932 14.0576 45.5193 14.0576C45.3454 14.0576 45.3454 14.0576 45.1715 14.0576C45.1715 14.0576 44.3021 14.7518 43.085 15.4459C40.1291 17.702 34.565 21.6934 33.8694 22.214C32.1307 23.4288 31.7829 24.6436 32.4784 26.5525C32.4784 27.0731 36.4776 38.7003 36.9993 40.2622L38.9119 39.568L34.7388 26.8996L34.565 27.0731Z" fill="#231815"/>
<path d="M78.9033 49.459C78.9033 49.459 72.2959 54.1446 72.1221 54.3181C72.4698 54.3181 76.2951 54.3181 76.469 54.3181C76.9907 54.3181 77.1645 54.3181 77.3384 54.3181C77.3384 54.3181 77.5123 54.1446 77.6862 53.624L79.0772 49.459H78.9033Z" fill="#231815"/>
<path d="M80.9901 56.2268C80.2946 58.1358 79.5991 58.4829 78.2081 58.4829C77.3387 58.4829 67.6015 58.4829 67.2537 58.4829C67.2537 58.4829 66.906 58.4829 66.7321 58.4829C66.7321 58.4829 66.5582 58.1358 66.5582 57.9622C66.5582 57.9622 66.5582 57.6152 66.5582 55.8798V55.0121C66.5582 53.7973 67.2537 53.1031 67.9492 52.756C68.1231 52.756 69.5141 51.5413 71.2529 50.3265C75.2521 47.5498 81.164 43.2113 81.5117 42.8642C81.5117 42.8642 81.5117 42.8642 81.5117 42.6907C81.5117 42.6907 81.5117 42.6907 81.3379 42.5172C80.6423 42.3436 67.7754 38.1786 64.4717 36.9639C64.4717 40.6082 64.4717 45.988 64.4717 47.5498C64.9933 47.0292 66.3843 46.1615 66.5582 46.1615V40.7818V39.9141L77.3387 43.3849L76.4693 44.079C76.4693 44.079 66.5582 51.3677 65.6888 51.8883C64.9933 52.409 64.4717 52.9296 64.4717 54.1444C64.4717 55.7062 64.4717 59.6976 64.4717 60.3918C64.4717 60.7389 64.6456 60.9124 64.9933 60.9124H66.2105C69.3403 60.9124 78.0342 60.9124 78.9036 60.9124C80.9901 60.9124 82.0334 60.2183 82.7289 58.1358C82.7289 57.6152 86.7281 46.1615 87.2497 44.4261L85.3371 43.7319L81.164 56.4004L80.9901 56.2268Z" fill="#231815"/>
<path d="M84.8152 31.4106C84.8152 31.237 85.6846 28.6339 86.2062 27.4192C86.3801 26.8985 86.2062 26.725 86.2062 26.5515C86.2062 26.5515 86.2062 26.2044 85.6846 26.0308L82.207 23.4277C82.207 23.4277 84.6413 31.237 84.8152 31.4106Z" fill="#231815"/>
<path d="M91.2486 22.3873C90.7269 22.0402 80.9898 14.925 79.5987 13.8838L78.3816 15.6192L89.162 23.4285C90.7269 24.6433 90.9008 25.511 90.3792 26.8993C90.3792 27.4199 88.8143 31.4114 87.9449 34.3615C87.2494 36.6176 87.0755 37.1382 87.0755 37.3117C87.0755 37.3117 87.0755 37.6588 86.7277 37.6588C86.7277 37.6588 86.38 37.6588 86.2061 37.6588C86.2061 37.6588 86.2061 37.6588 84.8151 37.1382C84.2934 37.1382 83.7718 36.7911 83.4241 36.6176C82.2069 36.2705 81.8592 35.4028 81.6853 34.5351C81.3375 33.3203 76.6428 19.09 76.4689 18.5694C76.4689 18.5694 76.4689 18.5694 76.2951 18.5694C76.2951 18.5694 76.295 18.5694 76.1212 18.5694C75.7734 19.09 67.775 30.023 65.6885 32.9732C69.166 34.0145 74.3824 35.7499 75.7734 36.2705C75.7734 36.2705 75.7734 36.2705 75.7734 36.0969C75.5995 35.4028 75.0779 34.188 75.0779 34.0145C75.0779 34.0145 70.2093 32.4526 69.8616 32.2791H69.166C69.166 32.1055 75.7734 22.9079 75.7734 22.9079L76.1212 23.9491C76.1212 23.9491 79.9465 35.5763 80.2942 36.444C80.642 37.3117 80.9898 38.0059 82.033 38.353C83.4241 38.8736 87.2494 40.0884 87.9449 40.2619C88.2926 40.2619 88.4665 40.2619 88.6404 39.9148C88.8143 39.3942 92.6396 27.767 92.9874 26.7258C93.6829 24.6433 93.3351 23.602 91.5963 22.2137L91.2486 22.3873Z" fill="#231815"/>
<path d="M34.5646 59.1774H34.043V56.0537C34.2168 56.0537 34.5646 56.0537 34.9124 56.0537C35.7818 56.0537 36.1295 56.4008 36.1295 57.095C36.1295 57.7891 35.7818 57.9627 35.434 57.9627L36.3034 59.1774H35.6079L34.7385 58.1362H34.3907V59.1774H34.5646ZM34.5646 57.6156H34.9124C35.2601 57.6156 35.6079 57.442 35.6079 57.095C35.6079 56.7479 35.434 56.5743 34.9124 56.5743C34.3907 56.5743 34.7385 56.5743 34.7385 56.5743V57.7891L34.5646 57.6156Z" fill="#231815"/>
<path d="M34.9119 60.566C33.347 60.566 32.1299 59.3512 32.1299 57.7893C32.1299 56.2275 33.347 55.0127 34.9119 55.0127C36.4768 55.0127 37.694 56.2275 37.694 57.7893C37.694 59.3512 36.4768 60.566 34.9119 60.566ZM34.9119 55.3598C33.5209 55.3598 32.4776 56.401 32.4776 57.7893C32.4776 59.1777 33.5209 60.2189 34.9119 60.2189C36.303 60.2189 37.3462 59.1777 37.3462 57.7893C37.3462 56.401 36.303 55.3598 34.9119 55.3598Z" fill="#231815"/>
<path d="M1.35352 84.6872V86.0756V86.2491H11.6123C13.6989 86.2491 15.4376 84.5137 15.4376 82.4312V69.2421C15.4376 69.2421 15.4377 68.8951 15.2638 69.2421L13.525 69.9363C13.525 69.9363 13.525 69.9363 13.525 70.1099V82.6047C13.525 83.646 12.6556 84.6872 11.4385 84.6872H1.52739C1.52739 84.6872 1.35352 84.6872 1.35352 84.8608V84.6872Z" fill="#231815"/>
<path d="M67.2529 85.3821V69.0693H64.8186L55.4292 83.4732L46.2136 69.0693C46.2136 69.0693 46.2136 69.0693 46.0398 69.0693H43.6055V85.9027H45.5181V72.0195L54.5598 85.7292C54.5598 85.7292 54.5598 85.7292 54.9076 85.7292H56.4725C56.4725 85.7292 56.4725 85.7292 56.6463 85.7292L65.5141 72.0195V85.035V85.7292H67.4268V85.035L67.2529 85.3821Z" fill="#231815"/>
<path d="M40.6504 86.0766L29.6961 69.2432H28.1312L17.1769 86.0766C17.1769 86.0766 17.003 86.2501 17.1769 86.2501H19.4373C19.6112 86.2501 19.7851 86.0766 19.7851 86.0766L29.1745 71.8463L33.5214 78.6143H27.2618C27.2618 78.6143 27.0879 78.6143 26.9141 78.7879L26.0447 80.1762C26.0447 80.3497 26.0447 80.3497 26.2186 80.3497H34.5647L38.2162 86.0766C38.2162 86.0766 38.2162 86.0766 38.39 86.0766H40.8243H40.6504Z" fill="#231815"/>
<path d="M107.245 84.5147H93.8567C92.8135 84.5147 91.7702 83.647 91.7702 82.4322V77.7466H107.245C107.245 77.7466 107.245 77.7466 107.245 77.5731V76.1848C107.245 76.0112 107.071 76.0112 107.071 76.0112H91.5963V70.9786H107.071C107.071 70.9786 107.071 70.9786 107.071 70.805V69.4167C107.071 69.2432 106.898 69.2432 106.898 69.2432H89.5098V82.4322C89.5098 84.5147 91.2485 86.2501 93.3351 86.2501H107.071C107.071 86.2501 107.071 86.2501 107.071 86.0766V84.6882C107.071 84.5147 106.898 84.5147 106.898 84.5147H107.245Z" fill="#231815"/>
<path d="M87.2493 84.5147H73.8606C72.8174 84.5147 71.7741 83.647 71.7741 82.4322V77.7466H87.2493C87.2493 77.7466 87.2493 77.7466 87.2493 77.5731V76.1848C87.2493 76.0112 87.0754 76.0112 87.0754 76.0112H71.6002V70.9786H87.0754C87.0754 70.9786 87.0754 70.9786 87.0754 70.805V69.4167C87.0754 69.2432 86.9015 69.2432 86.9015 69.2432H69.5137V82.4322C69.5137 84.5147 71.2525 86.2501 73.339 86.2501H87.0754C87.0754 86.2501 87.0754 86.2501 87.0754 86.0766V84.6882C87.0754 84.5147 86.9015 84.5147 86.9015 84.5147H87.2493Z" fill="#231815"/>
<path d="M124.111 84.6872V86.0756V86.2491H114.026C111.94 86.2491 110.201 84.5137 110.201 82.4312V69.2421C110.201 69.2421 110.201 68.8951 110.375 69.2421L112.114 69.9363C112.114 69.9363 112.114 69.9363 112.114 70.1099V82.6047C112.114 83.646 112.983 84.6872 114.2 84.6872H123.938C123.938 84.6872 124.111 84.6872 124.111 84.8608V84.6872Z" fill="#231815"/>
<path d="M6.39593 102.39L3.78776 94.0601L2.39673 102.39H1.52734L3.26613 93.1924H4.48327L7.09145 101.522L9.69962 93.1924H10.9168L12.6555 102.39H11.6123L10.2213 94.0601L7.61308 102.39H6.56981H6.39593Z" fill="#231815"/>
<path d="M32.1303 93.0186C34.7385 93.0186 36.9989 94.9275 36.9989 97.8777C36.9989 100.828 34.9124 102.737 32.1303 102.737C29.3483 102.737 27.2617 100.828 27.2617 97.8777C27.2617 94.9275 29.3483 93.0186 32.1303 93.0186ZM32.1303 93.8863C30.0438 93.8863 28.305 95.4481 28.305 97.8777C28.305 100.307 30.0438 101.869 32.1303 101.869C34.2168 101.869 35.9556 100.307 35.9556 97.8777C35.9556 95.4481 34.2168 93.8863 32.1303 93.8863Z" fill="#231815"/>
<path d="M55.0823 102.39H54.039V93.8863H50.9092V93.0186H58.0382V93.8863H54.9084V102.39H55.0823Z" fill="#231815"/>
<path d="M77.1645 93.0186C79.7727 93.0186 82.0331 94.9275 82.0331 97.8777C82.0331 100.828 79.9465 102.737 77.1645 102.737C74.3824 102.737 72.2959 100.828 72.2959 97.8777C72.2959 94.9275 74.3824 93.0186 77.1645 93.0186ZM77.1645 93.8863C75.0779 93.8863 73.3392 95.4481 73.3392 97.8777C73.3392 100.307 75.0779 101.869 77.1645 101.869C79.251 101.869 80.9898 100.307 80.9898 97.8777C80.9898 95.4481 79.251 93.8863 77.1645 93.8863Z" fill="#231815"/>
<path d="M98.5511 102.39H97.5078V93.0186C97.8556 93.0186 98.725 93.0186 99.2466 93.0186C101.681 93.0186 102.898 94.2333 102.898 95.9687C102.898 97.7041 102.029 98.3983 100.811 98.7454L103.941 102.563H102.724L99.7682 98.9189H98.3772V102.563L98.5511 102.39ZM98.5511 98.0512H99.5943C101.159 98.0512 102.029 97.3571 102.029 95.9687C102.029 94.5804 101.333 93.8863 99.4205 93.8863C97.5078 93.8863 98.8988 93.8863 98.5511 93.8863V98.0512Z" fill="#231815"/>
<path d="M118.722 100.828C119.417 101.348 120.113 101.695 121.156 101.695C122.199 101.695 123.243 101.175 123.243 99.9599C123.243 98.7451 122.373 98.398 121.33 98.0509C119.591 97.3568 118.722 96.8362 118.722 95.2743C118.722 93.7124 120.113 92.8447 121.504 92.8447C122.895 92.8447 123.243 93.1918 123.764 93.5389V94.5801C123.069 94.0595 122.373 93.7124 121.504 93.7124C120.634 93.7124 119.765 94.4066 119.765 95.2743C119.765 96.142 120.287 96.6626 121.678 97.0097C123.416 97.5303 124.286 98.2245 124.286 99.7863C124.286 101.348 122.895 102.389 121.33 102.389C119.765 102.389 119.591 102.042 118.896 101.695V100.654L118.722 100.828Z" fill="#231815"/>
</g>
<defs>
<clipPath id="clip0_2201_799">
<rect width="124" height="107" fill="white"/>
</clipPath>
</defs>
</svg>
