<svg width="325" height="87" viewBox="0 0 325 87" fill="none" xmlns="http://www.w3.org/2000/svg">
<g clip-path="url(#clip0_2201_790)">
<path d="M0 0L0.683183 78.3565L41.1618 87L81.6648 78.3565L82.348 0H0ZM71.4414 69.9585L41.1618 76.4166L10.8821 69.9585L10.3697 10.3378H36.0379V51.7875H46.3101V10.3378H71.9782L71.4658 69.9585H71.4414Z" fill="#231815"/>
<path d="M103.331 30.8658H129.878V25.6846H97.5488V53.3831H103.331V43.1681H126.56V37.9869H103.331V30.8658Z" fill="#231815"/>
<path d="M212.763 25.6846H206.956V53.3831H212.763V25.6846Z" fill="#231815"/>
<path d="M200.002 44.0029V29.417L196.293 25.6846H167.6V53.3831H173.407L173.504 44.0029H187.046L194.61 53.3831H201.612L194.049 44.0029H200.026H200.002ZM173.407 30.8658H194.219L194.317 38.8217H173.504L173.407 30.8658Z" fill="#231815"/>
<path d="M249.386 29.9572V25.6846H219.033V30.8903H239.821L218.838 49.0614L218.765 49.135V53.3831H249.679V48.1774H228.305L249.386 29.9572Z" fill="#231815"/>
<path d="M319.217 25.6846V45.0588L299.429 25.6846H293.769V53.3831H299.576V33.4932L319.364 53.3831H325V25.6846H319.217Z" fill="#231815"/>
<path d="M142.224 25.6602L126.853 53.3833H133.44L136.515 47.7601H155.009L158.084 53.3833H164.672L149.3 25.6602H142.175H142.224ZM139.321 42.6525L145.786 30.6204L152.252 42.6525H139.345H139.321Z" fill="#231815"/>
<path d="M287.23 25.6846H255.315V52.0817L271.224 54.2917H271.248H271.273L287.205 52.0817V25.6846H287.23ZM281.447 47.6126L271.297 49.0123L261.122 47.6126V30.8658H281.447V47.6126Z" fill="#231815"/>
</g>
<defs>
<clipPath id="clip0_2201_790">
<rect width="325" height="87" fill="white"/>
</clipPath>
</defs>
</svg>
