<svg width="158" height="43" viewBox="0 0 158 43" fill="none" xmlns="http://www.w3.org/2000/svg">
<path d="M0 0L0.332131 37.9473L20.0109 42.1332L39.7016 37.9473L40.0337 0H0ZM34.7314 33.8802L20.0109 37.0078L5.29038 33.8802L5.04128 5.00652H17.5199V25.0802H22.5138V5.00652H34.9924L34.7433 33.8802H34.7314Z" fill="white"/>
<path d="M50.2351 14.9487H63.1408V12.4395H47.4238V25.8536H50.2351V20.9065H61.5275V18.3973H50.2351V14.9487Z" fill="white"/>
<path d="M103.436 12.4395H100.613V25.8536H103.436V12.4395Z" fill="white"/>
<path d="M97.231 21.3109V14.247L95.428 12.4395H81.4785V25.8536H84.3016L84.3491 21.3109H90.9324L94.6096 25.8536H98.0139L94.3367 21.3109H97.2429H97.231ZM84.3016 14.9487H94.4198L94.4672 18.8017H84.3491L84.3016 14.9487Z" fill="white"/>
<path d="M121.238 14.5087V12.4395H106.482V14.9605H116.588L106.387 23.7606L106.352 23.7963V25.8536H121.381V23.3325H110.99L121.238 14.5087Z" fill="white"/>
<path d="M155.188 12.4395V21.8222L145.568 12.4395H142.816V25.8536H145.64V16.2211L155.259 25.8536H158V12.4395H155.188Z" fill="white"/>
<path d="M69.1429 12.4277L61.6699 25.8538H64.8726L66.3672 23.1305H75.3585L76.8531 25.8538H80.0558L72.5828 12.4277H69.1192H69.1429ZM67.7313 20.657L70.8747 14.8299L74.0181 20.657H67.7432H67.7313Z" fill="white"/>
<path d="M139.636 12.4395H124.121V25.2233L131.855 26.2936H131.867H131.879L139.625 25.2233V12.4395H139.636ZM136.825 23.059L131.891 23.7368L126.944 23.059V14.9487H136.825V23.059Z" fill="white"/>
</svg>
