<svg width="195" height="52" viewBox="0 0 195 52" fill="none" xmlns="http://www.w3.org/2000/svg">
<path d="M0 0L0.40991 46.8338L24.6971 52L48.9989 46.8338L49.4088 0H0ZM42.8649 41.8143L24.6971 45.6743L6.52928 41.8143L6.22185 6.17894H21.6227V30.9534H27.786V6.17894H43.1869L42.8795 41.8143H42.8649Z" fill="white"/>
<path d="M61.9989 18.4489H77.9268V15.3521H58.5293V31.9075H61.9989V25.802H75.9358V22.7051H61.9989V18.4489Z" fill="white"/>
<path d="M127.658 15.3521H124.174V31.9075H127.658V15.3521Z" fill="white"/>
<path d="M120.001 26.301V17.5829L117.776 15.3521H100.56V31.9075H104.044L104.102 26.301H112.227L116.766 31.9075H120.967L116.429 26.301H120.016H120.001ZM104.044 18.4489H116.531L116.59 23.2042H104.102L104.044 18.4489Z" fill="white"/>
<path d="M149.632 17.9058V15.3521H131.42V18.4635H143.893L131.303 29.3244L131.259 29.3684V31.9075H149.807V28.796H136.983L149.632 17.9058Z" fill="white"/>
<path d="M191.531 15.3521V26.9321L179.658 15.3521H176.262V31.9075H179.746V20.0193L191.619 31.9075H195V15.3521H191.531Z" fill="white"/>
<path d="M85.3343 15.3374L76.1113 31.9075H80.064L81.9086 28.5465H93.0055L94.8501 31.9075H98.8028L89.5798 15.3374H85.305H85.3343ZM83.5922 25.4938L87.4717 18.3021L91.3512 25.4938H83.6068H83.5922Z" fill="white"/>
<path d="M172.338 15.3521H153.189V31.1296L162.735 32.4506H162.749H162.764L172.323 31.1296V15.3521H172.338ZM168.869 28.4585L162.778 29.295L156.674 28.4585V18.4489H168.869V28.4585Z" fill="white"/>
</svg>
