<svg width="42" height="43" viewBox="0 0 42 43" fill="none" xmlns="http://www.w3.org/2000/svg">
<g clip-path="url(#clip0_2316_5263)">
<path d="M10.0473 10.424H5.78516V12.8957H12.4817V4.19824H10.0473V10.424Z" fill="#231815"/>
<path d="M2.53327 11.6563C2.53327 6.64129 6.54839 2.56481 11.4879 2.56481C14.7127 2.56481 17.5423 4.30573 19.1159 6.90636L20.506 4.45618C18.4032 1.74808 15.1431 0 11.4808 0C5.15121 0 0 5.22992 0 11.6563C0 17.5238 4.29032 22.3884 9.85081 23.1979L11.248 20.7477C6.42137 20.6188 2.53327 16.5925 2.53327 11.6634V11.6563Z" fill="#231815"/>
<path d="M30.6168 15.8331L41.9989 2.36421L40.9333 0H26.8134L25.6067 0.694935L13.5049 21.0916L14.7257 23.2552L20.9989 23.1908L11.0352 41.3021L13.2721 42.9928L36.9888 18.1973L35.9585 15.7757L30.6098 15.8331H30.6168ZM18.7267 33.1921L24.6471 22.4385L23.4051 20.3107L17.2237 20.3752L27.6108 2.85855H37.8708L26.4535 16.3632L27.5402 18.7203L32.6138 18.6629L18.7337 33.1849L18.7267 33.1921Z" fill="#231815"/>
</g>
<defs>
<clipPath id="clip0_2316_5263">
<rect width="42" height="43" fill="white"/>
</clipPath>
</defs>
</svg>
