<svg width="94" height="112" viewBox="0 0 94 112" fill="none" xmlns="http://www.w3.org/2000/svg">
<path d="M84.6142 8.37158H80.6378C70.2783 8.37158 61.8809 16.6685 61.8809 26.9039V52.6734H76.3214V32.3576C76.3214 29.3335 78.8066 26.891 81.8543 26.891H84.6142V8.37158Z" stroke="white" stroke-width="4" stroke-linecap="round" stroke-linejoin="round"/>
<path d="M74.1747 52.6733H64.6523V62.6891H74.1747V52.6733Z" stroke="white" stroke-width="4" stroke-linecap="round" stroke-linejoin="round"/>
<path d="M38.9515 2H11.8363C6.40386 2 2 6.35111 2 11.7185V58.7342C2 64.1016 6.40386 68.4527 11.8363 68.4527H38.9515C44.3839 68.4527 48.7878 64.1016 48.7878 58.7342V11.7185C48.7878 6.35111 44.3839 2 38.9515 2Z" stroke="white" stroke-width="4" stroke-miterlimit="10" stroke-linecap="round"/>
<path d="M23.8047 69.6677V86.4294C23.8047 98.9523 34.0857 109.11 46.7604 109.11C59.4351 109.11 69.7161 98.9523 69.7161 86.4294V62.689" stroke="white" stroke-width="4" stroke-miterlimit="10" stroke-linecap="round"/>
<path d="M91.0758 13.5278H85.8438" stroke="white" stroke-width="4" stroke-miterlimit="10" stroke-linecap="round"/>
<path d="M91.0758 21.5791H85.8438" stroke="white" stroke-width="4" stroke-miterlimit="10" stroke-linecap="round"/>
<path d="M26.7199 14.7427L11.6777 39.9306H23.8031L22.1157 56.1625L37.171 31.1297H24.4178L26.7199 14.7427Z" stroke="white" stroke-width="4" stroke-linecap="round" stroke-linejoin="round"/>
</svg>
