<svg width="62" height="62" viewBox="0 0 62 62" fill="none" xmlns="http://www.w3.org/2000/svg">
<g clip-path="url(#clip0_2281_6754)">
<path d="M24.7031 23.4987C24.7031 26.9281 27.49 29.715 30.9194 29.715C34.3488 29.715 37.1357 26.9281 37.1357 23.4987C37.1357 20.0694 34.3488 17.2915 30.9194 17.2915C27.49 17.2915 24.7031 20.0784 24.7031 23.4987ZM33.9145 23.4987C33.9145 25.1546 32.5662 26.5028 30.9104 26.5028C29.2545 26.5028 27.9063 25.1546 27.9063 23.4987C27.9063 21.8429 29.2545 20.4947 30.9104 20.4947C32.5662 20.4947 33.9145 21.8429 33.9145 23.4987Z" fill="#1B1B1A"/>
<path d="M30.9104 30.9819C25.6261 30.9819 21.3281 35.2799 21.3281 40.5642H24.5313C24.5313 37.0534 27.3906 34.1941 30.9014 34.1941C34.4122 34.1941 37.2715 37.0534 37.2715 40.5642H40.4747C40.4747 35.2799 36.1766 30.9819 30.8923 30.9819H30.9104Z" fill="#1B1B1A"/>
<path d="M7.0035 22.6846L4.77758 24.9195L9.49183 29.6247H0L0 32.8369H9.50088L4.78663 37.5421L7.01255 39.7771L14.4413 32.3483V30.1224L7.0035 22.6846Z" fill="#1B1B1A"/>
<path d="M61.9999 29.6247L52.499 29.6247L57.2133 24.9195L54.9783 22.6846L47.5586 30.1133V32.3393L54.9874 39.7771L57.2223 37.5421L52.5081 32.8369H61.9999V29.6247Z" fill="#1B1B1A"/>
<path d="M29.8858 47.5586L22.457 54.9874L24.683 57.2223L29.3972 52.5081L29.3972 61.9999H32.6003V52.499L37.3146 57.2133L39.5405 54.9783L32.1208 47.5586H29.8858Z" fill="#1B1B1A"/>
<path d="M32.1117 14.4413L39.5405 7.01255L37.3146 4.77758L32.6003 9.49183V0L29.3972 0V9.50088L24.683 4.78663L22.457 7.0216L29.8768 14.4413H32.1117Z" fill="#1B1B1A"/>
</g>
<defs>
<clipPath id="clip0_2281_6754">
<rect width="62" height="62" fill="white"/>
</clipPath>
</defs>
</svg>
