<svg width="49" height="49" viewBox="0 0 49 49" fill="none" xmlns="http://www.w3.org/2000/svg">
<g clip-path="url(#clip0_2281_6761)">
<path d="M24.5 0C10.9904 0 0 10.9904 0 24.5C0 38.0096 10.9904 49 24.5 49C38.0096 49 49 38.0096 49 24.5C49 10.9904 38.0096 0 24.5 0ZM37.6473 27.4472V24.6646H46.2339C46.2339 25.6114 46.1598 26.5334 46.0363 27.4472H37.6556H37.6473ZM24.5 2.77436C35.548 2.77436 44.6862 11.0645 46.0445 21.7503H37.6391V20.4661L32.6255 17.0496H15.9958L11.5008 20.4414L11.4844 21.7421L2.95548 21.7421C4.31384 11.0645 13.4519 2.77436 24.5 2.77436ZM18.0704 32.5432L14.2917 29.8264L14.4069 21.915L16.9837 19.9639H31.7364L34.733 22.0055L34.733 30.057L31.2589 32.5432L18.0786 32.5432H18.0704ZM11.4021 27.4472L2.98017 27.4472C2.85669 26.5334 2.78259 25.6032 2.78259 24.6646L11.4514 24.6646L11.4103 27.4472H11.4021ZM3.58115 30.3698L11.3609 30.3698L11.3444 31.3165L17.1237 35.4657H19.4617V45.6411C11.7972 43.8135 5.69691 37.919 3.58115 30.3698ZM22.3842 46.1268V35.4657H26.5993V46.1351C25.9078 46.2009 25.208 46.2421 24.5 46.2421C23.792 46.2421 23.0758 46.2092 22.3842 46.1351V46.1268ZM29.5218 45.6411V35.4657H32.1892L37.6473 31.5635V30.3698H45.4271C43.3031 37.9272 37.2028 43.8217 29.5301 45.6411H29.5218Z" fill="#1B1B1A"/>
</g>
<defs>
<clipPath id="clip0_2281_6761">
<rect width="49" height="49" fill="white"/>
</clipPath>
</defs>
</svg>
