<svg width="49" height="49" viewBox="0 0 49 49" fill="none" xmlns="http://www.w3.org/2000/svg">
<g clip-path="url(#clip0_2281_6752)">
<path d="M46.5454 0L2.45459 0L0 2.42036L0 46.6208L2.41285 49L46.5872 49L49 46.6208L49 2.42036L46.5454 0ZM45.7857 45.8387L3.21435 45.8387L3.21435 3.16952L45.794 3.16952L45.794 45.8387H45.7857Z" fill="#231815"/>
<path d="M23.6861 26.5333L16.6814 19.865L14.5273 22.0631L21.5572 28.7561C21.3317 29.7523 21.624 30.8307 22.4255 31.5716C23.0099 32.115 23.7529 32.3867 24.5043 32.3867C25.3142 32.3867 26.1157 32.0738 26.7085 31.4482C27.2595 30.8636 27.5517 30.1063 27.5267 29.3077C27.5016 28.5091 27.1677 27.7682 26.5749 27.2249C25.7734 26.4839 24.6713 26.2617 23.6861 26.5333ZM24.4459 29.4559C24.4459 29.4559 24.4209 29.4312 24.4209 29.4065C24.4209 29.3818 24.4376 29.3653 24.4376 29.3571C24.4542 29.3406 24.4709 29.3324 24.496 29.3324C24.5127 29.3324 24.5377 29.3324 24.5461 29.3571C24.5795 29.3818 24.5795 29.4312 24.5461 29.4641C24.521 29.497 24.4709 29.497 24.4376 29.4641L24.4459 29.4559Z" fill="#231815"/>
<path d="M8.20737 29.3985C8.20737 20.5403 15.5211 13.3286 24.5045 13.3286C33.488 13.3286 40.8017 20.5403 40.8017 29.3985V31.9753H43.9075V29.3985C43.9075 18.8526 35.2079 10.2661 24.5045 10.2661C13.8012 10.2661 5.10156 18.8526 5.10156 29.3985L5.10156 31.9753H8.20737V29.3985Z" fill="#231815"/>
</g>
<defs>
<clipPath id="clip0_2281_6752">
<rect width="49" height="49" fill="white"/>
</clipPath>
</defs>
</svg>
