<svg width="49" height="49" viewBox="0 0 49 49" fill="none" xmlns="http://www.w3.org/2000/svg">
<g clip-path="url(#clip0_2281_6753)">
<path d="M46.5454 0L2.45459 0L0 2.42036L0 46.6208L2.41285 49L46.5872 49L49 46.6208L49 2.42036L46.5454 0ZM45.7857 45.8387L3.21435 45.8387L3.21435 3.16952L45.794 3.16952L45.794 45.8387H45.7857Z" fill="#231815"/>
<path d="M39.8582 18.2021H43.0725V7.65626L41.4612 6.06738L30.7578 6.06738V9.23691L39.8582 9.23691V18.2021Z" fill="#231815"/>
<path d="M18.2444 42.9327V39.7631H9.14403L9.14403 30.8062H5.92969L5.92969 41.352L7.54104 42.9327H18.2444Z" fill="#231815"/>
<path d="M34.0938 12.8748L12.7109 33.9595L14.9071 36.125L36.2899 15.0403L34.0938 12.8748Z" fill="#231815"/>
</g>
<defs>
<clipPath id="clip0_2281_6753">
<rect width="49" height="49" fill="white"/>
</clipPath>
</defs>
</svg>
