<svg width="46" height="40" viewBox="0 0 46 40" fill="none" xmlns="http://www.w3.org/2000/svg">
<g clip-path="url(#clip0_2316_5262)">
<path d="M9.55224 18.8275V27.2111H12.4761V18.835C16.9846 18.1382 20.444 14.2049 20.444 9.46994C20.4366 4.24799 16.2183 0 11.0328 0C5.84725 0 1.62891 4.24799 1.62891 9.46994C1.62891 14.1824 5.06607 18.1083 9.55224 18.8275ZM11.0328 2.94437C14.6113 2.94437 17.5202 5.87376 17.5202 9.47743C17.5202 13.0811 14.6113 16.0105 11.0328 16.0105C7.45423 16.0105 4.54529 13.0811 4.54529 9.47743C4.54529 5.87376 7.45423 2.94437 11.0328 2.94437Z" fill="#231815"/>
<path d="M34.327 15.126C32.2811 15.126 30.3765 16.055 29.1043 17.6733L21.3149 27.5927C20.6007 28.4993 19.5368 29.0237 18.3836 29.0237H0V31.9681H18.3911C20.437 31.9681 22.3416 31.0391 23.6138 29.4208L31.4032 19.5013C32.1174 18.5948 33.1813 18.0778 34.3345 18.0778H46.0074V15.1335H34.3345L34.327 15.126Z" fill="#231815"/>
<path d="M12.4746 33.5947H9.55078V40.0004H12.4746V33.5947Z" fill="#231815"/>
</g>
<defs>
<clipPath id="clip0_2316_5262">
<rect width="46" height="40" fill="white"/>
</clipPath>
</defs>
</svg>
