<svg width="99" height="94" viewBox="0 0 99 94" fill="none" xmlns="http://www.w3.org/2000/svg">
<path d="M91.575 68.6135V84.8616C91.575 88.3369 88.7453 91.1582 85.2595 91.1582H8.31553C4.82977 91.1582 2 88.3369 2 84.8616V29.6028C2 26.1274 4.82977 23.3062 8.31553 23.3062H85.2595C88.7453 23.3062 91.575 26.1274 91.575 29.6028V45.4405" stroke="white" stroke-width="4" stroke-miterlimit="10"/>
<path d="M69.2718 45.8638H94.148C95.2542 45.8638 96.1417 46.7486 96.1417 47.8515V66.6259C96.1417 67.7288 95.2542 68.6136 94.148 68.6136H69.2718C65.4902 68.6136 62.416 65.5487 62.416 61.7784V52.699C62.416 48.9287 65.4902 45.8638 69.2718 45.8638Z" stroke="white" stroke-width="4" stroke-miterlimit="10"/>
<path d="M46.7871 17.7666L72.4994 10.9442C74.6989 10.3543 76.9627 11.6367 77.593 13.8296L80.3199 23.3194" stroke="white" stroke-width="4" stroke-miterlimit="10" stroke-linecap="round"/>
<path d="M12.0059 23.3065L59.3787 2.30068C61.0766 1.54406 63.0832 2.26221 63.9064 3.92933L68.0095 12.1367" stroke="white" stroke-width="4" stroke-miterlimit="10"/>
<path d="M12.0059 78.8857H91.5738" stroke="white" stroke-width="4" stroke-miterlimit="10" stroke-linecap="round"/>
<path d="M69.2715 57.2388H73.4904" stroke="white" stroke-width="4" stroke-miterlimit="10" stroke-linecap="round"/>
</svg>
