<svg width="143" height="23" viewBox="0 0 143 23" fill="none" xmlns="http://www.w3.org/2000/svg">
<g clip-path="url(#clip0_368_303)">
<path d="M135.646 12.8986V17.3035H133.399V12.8986L126.045 5.79248H128.943L134.524 11.1837L140.102 5.79248H143.001L135.646 12.8986Z" fill="white"/>
<path d="M113.575 15.3234V17.3032H100.359C99.2727 17.3032 98.3906 16.4495 98.3906 15.4007V5.80322H113.575V7.77202H100.638V10.5578H113.218V12.5376H100.638V15.3234H113.575Z" fill="white"/>
<path d="M118.709 17.3035C117.622 17.3035 116.738 16.4498 116.738 15.3991V5.79248H118.985V15.3237H130.175V17.3035H118.709Z" fill="white"/>
<path d="M95.3051 15.3234V17.3032H82.0895C81.0031 17.3032 80.1211 16.4495 80.1211 15.4007V5.80322H95.3051V7.77202H82.3682V10.5578H94.948V12.5376H82.3682V15.3234H95.3051Z" fill="white"/>
<path d="M66.4615 12.5376V10.5578H76.7559V17.3032H63.1032C62.0168 17.3032 61.1348 16.4495 61.1348 15.4007V7.70578C61.1348 6.65698 62.0168 5.80322 63.1032 5.80322H76.7559V7.77202H63.3819V15.3234H74.5088V12.5376H66.4615Z" fill="white"/>
<path d="M16.7113 11.0106H1.01379C0.454393 11.0106 0 10.5726 0 10.0317V2.93664C0 1.31376 1.36127 0 3.03947 0H16.7132C17.2726 0 17.727 0.43792 17.727 0.97888V10.0317C17.727 10.5726 17.2726 11.0106 16.7132 11.0106H16.7113Z" fill="white"/>
<path d="M35.4496 11.0106H19.7501C19.1907 11.0106 18.7363 10.5726 18.7363 10.0317V0.97888C18.7363 0.43792 19.1907 0 19.7501 0H35.4496C36.009 0 36.4615 0.43792 36.4615 0.97888V10.0317C36.4615 10.5726 36.009 11.0106 35.4496 11.0106Z" fill="white"/>
<path d="M51.1504 22.9998H38.4904C37.931 22.9998 37.4785 22.5619 37.4785 22.0209V12.9681C37.4785 12.4272 37.9329 11.9893 38.4904 11.9893H54.1898C54.7492 11.9893 55.2017 12.4272 55.2017 12.9681V19.0843C55.2017 21.2463 53.388 22.9998 51.1504 22.9998Z" fill="white"/>
<path d="M54.1879 11.0106H38.4884C37.929 11.0106 37.4766 10.5726 37.4766 10.0317V0.97888C37.4766 0.43792 37.931 0 38.4884 0H52.1622C53.8404 0 55.1998 1.31376 55.1998 2.93664V10.0317C55.1998 10.5726 54.7473 11.0106 54.1879 11.0106Z" fill="white"/>
<path d="M16.7113 22.9998H4.05135C1.81375 22.9998 0 21.2463 0 19.0843V12.9681C0 12.4272 0.454393 11.9893 1.01379 11.9893H16.7132C17.2726 11.9893 17.727 12.4272 17.727 12.9681V22.0209C17.727 22.5619 17.2726 22.9998 16.7132 22.9998H16.7113Z" fill="white"/>
<path d="M35.4496 22.9998H19.7501C19.1907 22.9998 18.7363 22.5619 18.7363 22.0209V12.9681C18.7363 12.4272 19.1907 11.9893 19.7501 11.9893H35.4496C36.009 11.9893 36.4615 12.4272 36.4615 12.9681V22.0209C36.4615 22.5619 36.009 22.9998 35.4496 22.9998Z" fill="white"/>
</g>
<defs>
<clipPath id="clip0_368_303">
<rect width="143" height="23" fill="white"/>
</clipPath>
</defs>
</svg>
